<svg xmlns="http://www.w3.org/2000/svg" viewBox="0 0 24 24">
  <defs><style type="text/css" id="current-color-scheme">.ColorScheme-Text { color:#fcfcfc; }</style></defs>
  <g class="ColorScheme-Text" style="fill:none;stroke:currentColor;stroke-width:2;stroke-linecap:round;stroke-linejoin:round">
    <path d="M15.2 3a2 2 0 0 1 1.4.6l3.8 3.8a2 2 0 0 1 .6 1.4V19a2 2 0 0 1-2 2H5a2 2 0 0 1-2-2V5a2 2 0 0 1 2-2z" />
    <path d="M17 21v-7a1 1 0 0 0-1-1H8a1 1 0 0 0-1 1v7" />
    <path d="M7 3v4a1 1 0 0 0 1 1h7" />
    <path d="M15.5 22.5l.7-2.6 4.3-4.3a1.35 1.35 0 0 1 1.9 1.9l-4.3 4.3z"/>
  </g>
</svg>
