<?xml version="1.0" encoding="UTF-8" standalone="no"?><!-- Generator: Gravit.io --><svg xmlns="http://www.w3.org/2000/svg" xmlns:xlink="http://www.w3.org/1999/xlink" style="isolation:isolate" viewBox="0 0 160 160" width="160pt" height="160pt"><defs><clipPath id="_clipPath_tpn2VB3qTamntY7LODM2YaH06KQ6Ie6k"><rect width="160" height="160"/></clipPath></defs><g clip-path="url(#_clipPath_tpn2VB3qTamntY7LODM2YaH06KQ6Ie6k)"><g><path d="M 80 0 L 80 0 C 124.153 0 160 35.847 160 80 L 160 80 C 160 124.153 124.153 160 80 160 L 80 160 C 35.847 160 0 124.153 0 80 L 0 80 C 0 35.847 35.847 0 80 0 Z" style="stroke:none;fill:#2E2E2E;stroke-miterlimit:10;"/><path d=" M 73.75 118.75 L 117.5 80 L 64.484 21.25 L 45.796 21.25 L 97.5 78.75 L 71.25 102.5 L 73.75 118.75 Z " fill="rgb(196,236,211)"/><path d=" M 62.5 44.708 L 76.25 60 L 76.25 103.75 L 62.5 115 L 62.5 44.708 Z " fill="rgb(196,236,211)"/><path d=" M 80 132.5 C 72.5 132.5 66.734 140.131 66.484 140.508 C 66.109 141.006 66.109 141.495 66.484 141.992 C 66.734 142.368 72.5 150 80 150 C 87.5 150 93.266 142.369 93.516 141.992 C 93.891 141.494 93.891 141.005 93.516 140.508 C 93.266 140.132 87.5 132.5 80 132.5 Z  M 80 135 C 83.5 135 86.25 137.75 86.25 141.25 C 86.25 144.75 83.5 147.5 80 147.5 C 76.5 147.5 73.75 144.75 73.75 141.25 C 73.75 137.75 76.5 135 80 135 Z  M 80 138.125 C 78.275 138.126 76.876 139.525 76.875 141.25 C 76.875 142.974 78.276 144.375 80 144.375 C 81.724 144.375 83.125 142.974 83.125 141.25 C 83.125 139.526 81.724 138.125 80 138.125 Z " fill="rgb(196,236,211)"/><path d=" M 116.043 126.357 C 129.862 115.622 138.75 98.841 138.75 80 C 138.75 47.575 112.425 21.25 80 21.25 C 47.575 21.25 21.25 47.575 21.25 80 C 21.25 98.746 30.049 115.454 43.746 126.201 L 57.706 113.94 L 79.463 95 L 101.22 113.94 L 116.043 126.357 Z  M 46.832 140.784 L 46.765 140.838 C 25.224 129.097 10.625 106.24 10.625 80 C 10.625 41.711 41.711 10.625 80 10.625 C 118.289 10.625 149.375 41.711 149.375 80 C 149.375 106.812 134.133 130.091 111.832 141.613 L 111.016 142.168 L 96.476 128.281 L 79.583 113.75 L 62.69 128.281 L 47.5 141.25 L 46.832 140.784 Z " fill-rule="evenodd" fill="rgb(196,236,211)"/></g></g></svg>