<?xml version="1.0" encoding="UTF-8" standalone="no"?><!-- Generator: Gravit.io --><svg xmlns="http://www.w3.org/2000/svg" xmlns:xlink="http://www.w3.org/1999/xlink" style="isolation:isolate" viewBox="0 0 160 160" width="160pt" height="160pt"><defs><clipPath id="_clipPath_JPjWKp6wGunQH20iWI9UPc8XllRapCjG"><rect width="160" height="160"/></clipPath></defs><g clip-path="url(#_clipPath_JPjWKp6wGunQH20iWI9UPc8XllRapCjG)"><g><path d="M 43.75 0 L 116.25 0 C 140.396 0 160 19.604 160 43.75 L 160 116.25 C 160 140.396 140.396 160 116.25 160 L 43.75 160 C 19.604 160 0 140.396 0 116.25 L 0 43.75 C 0 19.604 19.604 0 43.75 0 Z" style="stroke:none;fill:#2E2E2E;stroke-miterlimit:10;"/><g><path d=" M 113.369 147.344 L 96.766 130.242 L 79.375 114.241 L 61.984 130.242 L 45.796 146.084 Q 34.317 144.734 25 137.634 C 15.683 130.534 9.375 121.231 9.375 106.794 L 9.375 47.208 C 9.375 27.362 26.681 11.25 47.998 11.25 L 47.998 11.25 L 112.002 11.25 C 133.319 11.25 150.625 27.362 150.625 47.208 L 150.625 106.794 C 150.625 121.539 145.539 130.045 133.75 138.867 Q 121.961 147.688 113.369 147.344 Z  M 44.097 128.377 C 31.898 124.461 23.125 113.674 23.125 100.994 L 23.125 53.008 C 23.125 37.026 37.062 24.051 54.229 24.051 L 54.229 24.051 L 105.771 24.051 C 122.938 24.051 136.875 37.026 136.875 53.008 L 136.875 100.994 C 136.875 113.995 127.652 125.006 114.971 128.661 L 104.354 119.186 L 79.375 95.621 L 54.396 119.186 L 44.097 128.377 Z " fill-rule="evenodd" fill="rgb(255,255,255)"/><path d=" M 77.5 116.25 L 117.5 77.5 L 61.984 21.25 L 45.796 21.25 L 98.75 76.25 L 71.25 103.75 L 77.5 116.25 Z " fill="rgb(255,255,255)"/><path d=" M 65 47.208 L 76.25 60 L 76.25 103.75 L 65 115 L 65 47.208 Z " fill="rgb(255,255,255)"/></g><path d=" M 80 132.5 C 72.5 132.5 66.734 140.131 66.484 140.508 C 66.109 141.006 66.109 141.495 66.484 141.992 C 66.734 142.368 72.5 150 80 150 C 87.5 150 93.266 142.369 93.516 141.992 C 93.891 141.494 93.891 141.005 93.516 140.508 C 93.266 140.132 87.5 132.5 80 132.5 Z  M 80 135 C 83.5 135 86.25 137.75 86.25 141.25 C 86.25 144.75 83.5 147.5 80 147.5 C 76.5 147.5 73.75 144.75 73.75 141.25 C 73.75 137.75 76.5 135 80 135 Z  M 80 138.125 C 78.275 138.126 76.876 139.525 76.875 141.25 C 76.875 142.974 78.276 144.375 80 144.375 C 81.724 144.375 83.125 142.974 83.125 141.25 C 83.125 139.526 81.724 138.125 80 138.125 Z " fill="rgb(255,255,255)"/></g></g></svg>