<?xml version="1.0" encoding="UTF-8" standalone="no"?><!-- Generator: Gravit.io --><svg xmlns="http://www.w3.org/2000/svg" xmlns:xlink="http://www.w3.org/1999/xlink" style="isolation:isolate" viewBox="0 0 311 311" width="311pt" height="311pt"><defs><clipPath id="_clipPath_xcX0heEzpjm38WsBLrwfo6wbx6uc8bTP"><rect width="311" height="311"/></clipPath></defs><g clip-path="url(#_clipPath_xcX0heEzpjm38WsBLrwfo6wbx6uc8bTP)"><g><defs><filter id="mu4x5kpz27yNO2fktU3jDd86FTv04iwK" x="-200%" y="-200%" width="400%" height="400%" filterUnits="objectBoundingBox" color-interpolation-filters="sRGB"><feGaussianBlur xmlns="http://www.w3.org/2000/svg" in="SourceGraphic" stdDeviation="2.146804531419514"/><feOffset xmlns="http://www.w3.org/2000/svg" dx="0" dy="0" result="pf_100_offsetBlur"/><feFlood xmlns="http://www.w3.org/2000/svg" flood-color="#000000" flood-opacity="0.65"/><feComposite xmlns="http://www.w3.org/2000/svg" in2="pf_100_offsetBlur" operator="in" result="pf_100_dropShadow"/><feBlend xmlns="http://www.w3.org/2000/svg" in="SourceGraphic" in2="pf_100_dropShadow" mode="normal"/></filter></defs><g filter="url(#mu4x5kpz27yNO2fktU3jDd86FTv04iwK)"><circle vector-effect="non-scaling-stroke" cx="155.49999999999997" cy="155.50000000000003" r="154.99999999999997" fill="rgb(255,255,255)"/></g><linearGradient id="_lgradient_3" x1="0.11551724137931044" y1="0.2258620689655172" x2="0.8862068965517242" y2="0.7862068965517244" gradientTransform="matrix(290,0,0,290,10.5,9)" gradientUnits="userSpaceOnUse"><stop offset="1.25%" stop-opacity="1" style="stop-color:rgb(66,171,255)"/><stop offset="44.583333333333336%" stop-opacity="1" style="stop-color:rgb(255,79,139)"/><stop offset="97.5%" stop-opacity="1" style="stop-color:rgb(255,235,59)"/></linearGradient><circle vector-effect="non-scaling-stroke" cx="155.49999999999974" cy="154.00000000000003" r="144.99999999999994" fill="url(#_lgradient_3)"/><defs><filter id="CBqKH3foYqWkfGPBtIjE6GCoi3lInIfP" x="-200%" y="-200%" width="400%" height="400%" filterUnits="objectBoundingBox" color-interpolation-filters="sRGB"><feOffset xmlns="http://www.w3.org/2000/svg" in="SourceGraphic" dx="0" dy="0"/><feGaussianBlur xmlns="http://www.w3.org/2000/svg" stdDeviation="2.146804531419514" result="pf_100_offsetBlur"/><feComposite xmlns="http://www.w3.org/2000/svg" in="SourceGraphic" in2="pf_100_offsetBlur" result="pf_100_inverse" operator="out"/><feFlood xmlns="http://www.w3.org/2000/svg" flood-color="#000000" flood-opacity="0.5" result="pf_100_color"/><feComposite xmlns="http://www.w3.org/2000/svg" in="pf_100_color" in2="pf_100_inverse" operator="in" result="pf_100_shadow"/><feComposite xmlns="http://www.w3.org/2000/svg" in="pf_100_shadow" in2="SourceGraphic" operator="over"/></filter></defs><g filter="url(#CBqKH3foYqWkfGPBtIjE6GCoi3lInIfP)"><circle vector-effect="non-scaling-stroke" cx="155.49999999999974" cy="155.5" r="114.99999999999986" fill="rgb(255,255,255)"/></g><defs><filter id="K1qrxj7Zk4TOQFttlqWIt89bNS4dVTzJ" x="-200%" y="-200%" width="400%" height="400%" filterUnits="objectBoundingBox" color-interpolation-filters="sRGB"><feOffset xmlns="http://www.w3.org/2000/svg" in="SourceGraphic" dx="0" dy="0"/><feGaussianBlur xmlns="http://www.w3.org/2000/svg" stdDeviation="2.146804531419514" result="pf_100_offsetBlur"/><feComposite xmlns="http://www.w3.org/2000/svg" in="SourceGraphic" in2="pf_100_offsetBlur" result="pf_100_inverse" operator="out"/><feFlood xmlns="http://www.w3.org/2000/svg" flood-color="#000000" flood-opacity="0.5" result="pf_100_color"/><feComposite xmlns="http://www.w3.org/2000/svg" in="pf_100_color" in2="pf_100_inverse" operator="in" result="pf_100_shadow"/><feComposite xmlns="http://www.w3.org/2000/svg" in="pf_100_shadow" in2="SourceGraphic" operator="over"/></filter></defs><g filter="url(#K1qrxj7Zk4TOQFttlqWIt89bNS4dVTzJ)"><linearGradient id="_lgradient_4" x1="0.22807017543859584" y1="0.5169491525423728" x2="0.5175438596491198" y2="0.9152542372881358" gradientTransform="matrix(47,0,0,49,110.5,168.5)" gradientUnits="userSpaceOnUse"><stop offset="0.8333333333333334%" stop-opacity="1" style="stop-color:rgb(237,101,144)"/><stop offset="99.16666666666667%" stop-opacity="1" style="stop-color:rgb(255,139,108)"/></linearGradient><path d=" M 157.5 190.5 L 118.5 217.5 L 115.5 207.5 L 110.5 204.5 L 110.5 194.5 L 149.5 168.5 L 157.5 190.5 Z " fill="url(#_lgradient_4)"/></g><defs><filter id="J85ejCrsFGqyazFsNC6f3EBaqf7rXseL" x="-200%" y="-200%" width="400%" height="400%" filterUnits="objectBoundingBox" color-interpolation-filters="sRGB"><feOffset xmlns="http://www.w3.org/2000/svg" in="SourceGraphic" dx="0" dy="0"/><feGaussianBlur xmlns="http://www.w3.org/2000/svg" stdDeviation="2.146804531419514" result="pf_100_offsetBlur"/><feComposite xmlns="http://www.w3.org/2000/svg" in="SourceGraphic" in2="pf_100_offsetBlur" result="pf_100_inverse" operator="out"/><feFlood xmlns="http://www.w3.org/2000/svg" flood-color="#000000" flood-opacity="0.5" result="pf_100_color"/><feComposite xmlns="http://www.w3.org/2000/svg" in="pf_100_color" in2="pf_100_inverse" operator="in" result="pf_100_shadow"/><feComposite xmlns="http://www.w3.org/2000/svg" in="pf_100_shadow" in2="SourceGraphic" operator="over"/></filter></defs><g filter="url(#J85ejCrsFGqyazFsNC6f3EBaqf7rXseL)"><linearGradient id="_lgradient_5" x1="0.22118397035989296" y1="0.34604812463288" x2="0.48271446862997525" y2="0.755792263515513" gradientTransform="matrix(89.984,0,0,150.719,120.891,84.836)" gradientUnits="userSpaceOnUse"><stop offset="2.083333333333333%" stop-opacity="1" style="stop-color:rgb(66,171,255)"/><stop offset="49.583333333333336%" stop-opacity="1" style="stop-color:rgb(255,93,132)"/><stop offset="100%" stop-opacity="1" style="stop-color:rgb(255,235,59)"/></linearGradient><path d=" M 137.344 86.664 L 137.344 86.664 L 137.344 86.664 Q 138.156 86.461 138.766 86.055 L 138.766 86.055 L 138.766 86.055 Q 139.375 85.648 140.187 85.648 L 140.187 85.648 L 140.187 85.648 Q 140.797 85.852 141.102 86.461 L 141.102 86.461 L 141.102 86.461 Q 141.406 87.07 142.016 87.477 L 142.016 87.477 L 142.016 87.477 Q 142.625 87.07 143.133 86.664 L 143.133 86.664 L 143.133 86.664 Q 143.641 86.258 144.25 86.055 L 144.25 86.055 L 144.25 86.055 Q 146.281 86.664 146.484 88.086 L 146.484 88.086 L 146.484 88.086 Q 147.5 88.492 148.312 89 L 148.312 89 L 148.312 89 Q 149.125 89.508 150.141 89.711 L 150.141 89.711 L 150.141 89.711 Q 150.547 90.523 151.156 90.93 L 151.156 90.93 L 151.156 90.93 Q 151.766 91.336 152.578 92.148 L 152.578 92.148 L 152.578 92.148 Q 154.609 92.555 157.961 94.383 L 157.961 94.383 L 157.961 94.383 Q 161.312 96.211 163.344 97.227 L 163.344 97.227 L 163.344 97.227 Q 165.375 98.242 167.406 99.258 L 167.406 99.258 L 167.406 99.258 Q 169.437 100.273 171.266 101.492 L 171.266 101.492 L 171.266 101.492 Q 173.094 102.508 174.922 103.828 L 174.922 103.828 L 174.922 103.828 Q 176.75 105.148 178.781 105.961 L 178.781 105.961 L 178.781 105.961 Q 180.609 108.195 183.453 108.805 L 183.453 108.805 L 183.453 108.805 Q 186.297 109.414 188.531 111.039 L 188.531 111.039 L 188.531 111.039 Q 190.359 112.055 191.984 113.172 L 191.984 113.172 L 191.984 113.172 Q 193.609 114.289 195.234 115.305 L 195.234 115.305 L 195.234 115.305 Q 195.844 116.32 196.758 116.93 L 196.758 116.93 L 196.758 116.93 Q 197.672 117.539 198.484 118.555 L 198.484 118.555 L 198.484 118.555 Q 202.547 120.789 203.156 122.008 L 203.156 122.008 L 203.156 122.008 Q 203.766 122.414 204.984 123.227 L 204.984 123.227 L 204.984 123.227 Q 206.203 124.039 207.422 124.953 L 207.422 124.953 L 207.422 124.953 Q 208.641 125.867 209.656 126.781 L 209.656 126.781 L 209.656 126.781 Q 210.672 127.695 210.875 128.508 L 210.875 128.508 L 210.875 128.508 Q 210.062 130.336 210.062 131.453 L 210.062 131.453 L 210.062 131.453 Q 210.062 132.57 209.25 133.383 L 209.25 133.383 L 209.25 133.383 Q 210.469 135.008 210.469 136.43 L 210.469 136.43 L 210.469 136.43 Q 209.453 138.867 207.016 140.492 L 207.016 140.492 L 207.016 140.492 Q 206.406 142.117 205.086 143.031 L 205.086 143.031 L 205.086 143.031 Q 203.766 143.945 203.359 145.57 L 203.359 145.57 L 203.359 145.57 Q 201.734 146.586 201.43 147.195 L 201.43 147.195 L 201.43 147.195 Q 201.125 147.805 200.719 148.414 L 200.719 148.414 L 200.719 148.414 Q 196.859 152.477 193.508 155.422 L 193.508 155.422 L 193.508 155.422 Q 190.156 158.367 187.312 161.82 L 187.312 161.82 L 187.312 161.82 Q 185.281 162.836 183.859 164.359 L 183.859 164.359 L 183.859 164.359 Q 182.437 165.883 181.219 167.711 L 181.219 167.711 L 181.219 167.711 Q 179.594 169.336 178.07 170.859 L 178.07 170.859 L 178.07 170.859 Q 176.547 172.383 174.922 173.805 L 174.922 173.805 L 174.922 173.805 Q 174.516 174.617 173.602 175.125 L 173.602 175.125 L 173.602 175.125 Q 172.687 175.633 172.281 176.648 L 172.281 176.648 L 172.281 176.648 Q 170.047 177.664 168.625 179.492 L 168.625 179.492 L 168.625 179.492 Q 167.203 181.32 165.172 182.539 L 165.172 182.539 L 163.75 184.57 L 163.75 184.57 Q 163.141 184.977 162.023 185.891 L 162.023 185.891 L 162.023 185.891 Q 160.906 186.805 159.789 187.922 L 159.789 187.922 L 159.789 187.922 Q 158.672 189.039 157.859 190.055 L 157.859 190.055 L 157.859 190.055 Q 157.047 191.07 156.844 191.68 L 156.844 191.68 L 156.844 191.68 Q 156.234 191.883 154.914 192.898 L 154.914 192.898 L 154.914 192.898 Q 153.594 193.914 152.273 195.133 L 152.273 195.133 L 152.273 195.133 Q 150.953 196.352 149.836 197.57 L 149.836 197.57 L 149.836 197.57 Q 148.719 198.789 148.516 199.195 L 148.516 199.195 L 146.484 200.617 L 146.484 200.617 Q 146.687 206.102 146.789 211.688 L 146.789 211.688 L 146.789 211.688 Q 146.891 217.273 146.891 222.758 L 146.891 222.758 L 146.891 229.664 L 145.469 231.492 L 145.469 231.492 Q 144.453 231.492 143.844 231.086 L 143.844 231.086 L 143.844 231.086 Q 143.234 230.68 142.422 230.68 L 142.422 230.68 L 142.422 230.68 Q 141.609 230.68 140.898 231.492 L 140.898 231.492 L 140.898 231.492 Q 140.187 232.305 139.578 232.711 L 139.578 232.711 L 139.578 232.711 Q 138.156 232.914 137.242 233.422 L 137.242 233.422 L 137.242 233.422 Q 136.328 233.93 135.312 234.336 L 135.312 234.336 L 135.312 234.336 Q 134.094 233.727 132.875 233.727 L 132.875 233.727 L 132.875 233.727 Q 130.234 234.336 130.336 233.93 L 130.336 233.93 L 130.336 233.93 Q 130.437 233.523 129.422 233.523 L 129.422 233.523 L 129.422 233.523 Q 127.797 235.148 127.391 235.148 L 127.391 235.148 L 127.391 235.148 Q 126.578 235.148 125.867 235.352 L 125.867 235.352 L 125.867 235.352 Q 125.156 235.555 124.344 235.555 L 124.344 235.555 L 124.344 235.555 Q 123.531 233.93 123.023 232.203 L 123.023 232.203 L 123.023 232.203 Q 122.516 230.477 121.094 228.852 L 121.094 228.852 L 121.094 228.852 Q 121.703 226.82 120.891 226.008 L 120.891 226.008 L 120.891 226.008 Q 122.109 223.773 121.906 220.93 L 121.906 220.93 L 121.906 220.93 Q 121.703 218.086 121.703 215.648 L 121.703 215.648 L 121.703 215.648 Q 121.703 214.227 121.805 212.906 L 121.805 212.906 L 121.805 212.906 Q 121.906 211.586 121.906 210.367 L 121.906 210.367 L 121.906 210.367 Q 121.906 207.93 121.5 205.391 L 121.5 205.391 L 121.5 205.391 Q 121.094 202.852 121.094 200.211 L 121.094 200.211 L 121.094 200.211 Q 121.094 194.117 121.5 187.922 L 121.5 187.922 L 121.5 187.922 Q 121.906 181.727 121.906 175.633 L 121.906 175.633 L 121.906 175.633 Q 121.906 172.18 121.602 168.523 L 121.602 168.523 L 121.602 168.523 Q 121.297 164.867 121.297 161.414 L 121.297 161.414 L 121.297 161.414 Q 121.297 159.18 121.5 157.25 L 121.5 157.25 L 121.5 157.25 Q 121.703 155.32 121.906 153.492 L 121.906 153.492 L 121.906 153.492 Q 121.906 144.148 122.211 135.516 L 122.211 135.516 L 122.211 135.516 Q 122.516 126.883 122.516 118.352 L 122.516 118.352 L 122.516 118.352 Q 122.516 115.508 122.414 112.969 L 122.414 112.969 L 122.414 112.969 Q 122.312 110.43 122.312 107.586 L 122.312 107.586 L 122.312 107.586 Q 122.312 106.164 122.516 104.742 L 122.516 104.742 L 122.516 104.742 Q 122.719 103.32 122.719 101.898 L 122.719 101.898 L 122.719 101.898 Q 123.328 95.602 123.328 89.305 L 123.328 89.305 L 123.125 86.055 L 123.125 86.055 Q 123.937 84.836 125.562 84.836 L 125.562 84.836 L 125.562 84.836 Q 127.797 84.836 129.016 86.258 L 129.016 86.258 L 129.016 86.258 Q 130.437 86.055 131.758 85.75 L 131.758 85.75 L 131.758 85.75 Q 133.078 85.445 134.297 85.445 L 134.297 85.445 L 134.297 85.445 Q 136.125 85.445 137.344 86.664 Z  M 149.734 118.352 L 149.328 118.961 L 149.328 118.961 Q 149.328 119.977 149.125 120.484 L 149.125 120.484 L 149.125 120.484 Q 148.922 120.992 148.719 121.398 L 148.719 121.398 L 148.719 121.398 Q 148.719 122.008 148.82 122.719 L 148.82 122.719 L 148.82 122.719 Q 148.922 123.43 148.922 124.242 L 148.922 124.242 L 148.922 124.242 Q 148.922 128.914 148.82 133.484 L 148.82 133.484 L 148.82 133.484 Q 148.719 138.055 148.719 142.523 L 148.719 142.523 L 148.312 153.289 L 148.312 153.289 Q 148.312 154.305 148.516 155.523 L 148.516 155.523 L 148.516 155.523 Q 148.719 156.742 148.719 157.758 L 148.719 157.758 L 148.719 157.758 Q 148.719 158.773 148.516 159.789 L 148.516 159.789 L 148.516 159.789 Q 148.312 160.805 148.312 161.82 L 148.312 161.82 L 148.312 161.82 Q 148.312 164.461 148.922 167.102 L 148.922 167.102 L 148.922 167.102 Q 149.937 166.695 150.344 165.781 L 150.344 165.781 L 150.344 165.781 Q 150.75 164.867 151.359 164.258 L 151.359 164.258 L 151.359 164.258 Q 156.031 159.992 160.094 155.32 L 160.094 155.32 L 160.094 155.32 Q 164.156 150.648 168.422 145.977 L 168.422 145.977 L 168.422 145.977 Q 172.078 142.117 174.719 139.68 L 174.719 139.68 L 174.719 139.68 Q 177.359 137.242 178.781 133.789 L 178.781 133.789 L 178.781 133.789 Q 175.328 131.555 171.672 129.219 L 171.672 129.219 L 171.672 129.219 Q 168.016 126.883 163.953 125.258 L 163.953 125.258 L 163.953 125.258 Q 163.75 124.852 162.836 124.242 L 162.836 124.242 L 162.836 124.242 Q 161.922 123.633 160.906 123.125 L 160.906 123.125 L 160.906 123.125 Q 159.891 122.617 158.875 122.211 L 158.875 122.211 L 158.875 122.211 Q 157.859 121.805 157.453 121.805 L 157.453 121.805 L 157.453 121.805 Q 155.625 120.18 153.594 119.773 L 153.594 119.773 L 153.594 119.773 Q 152.172 119.773 151.156 119.266 L 151.156 119.266 L 151.156 119.266 Q 150.141 118.758 149.734 118.352 L 149.734 118.352 L 149.734 118.352 Z " fill="url(#_lgradient_5)"/></g></g></g></svg>